<svg width="718" height="748" viewBox="0 0 718 748" fill="none" xmlns="http://www.w3.org/2000/svg">
<path opacity="0.1" d="M296.315 707.426C368.442 707.426 426.913 700.307 426.913 691.526C426.913 682.744 368.442 675.625 296.315 675.625C224.188 675.625 165.717 682.744 165.717 691.526C165.717 700.307 224.188 707.426 296.315 707.426Z" fill="black"/>
<path d="M295.766 703.04C363.954 703.04 419.231 644.125 419.231 571.449C419.231 498.773 363.954 439.858 295.766 439.858C227.579 439.858 172.302 498.773 172.302 571.449C172.302 644.125 227.579 703.04 295.766 703.04Z" fill="#3F3D56"/>
<path d="M435.144 666.305L430.754 690.43L459.288 694.816L477.945 683.85L476.847 666.305H435.144Z" fill="#575A89"/>
<path d="M291.376 213.411C291.376 213.411 289.181 238.633 283.694 239.73C278.207 240.826 295.766 284.69 295.766 284.69H322.105L342.957 279.207L333.08 255.082C333.08 255.082 319.91 237.536 329.787 223.281C339.665 209.025 291.376 213.411 291.376 213.411Z" fill="#FFBE9D"/>
<path opacity="0.1" d="M290.744 213.637C290.744 213.637 288.549 238.858 283.062 239.955C277.575 241.051 295.134 284.915 295.134 284.915H321.473L342.325 279.432L332.448 255.307C332.448 255.307 319.278 237.762 329.156 223.506C339.033 209.25 290.744 213.637 290.744 213.637Z" fill="black"/>
<path d="M236.503 406.412C236.503 406.412 212 453 231.016 472.207C245.5 478.787 245.5 480.71 245.5 484C245.5 487.29 255.16 487.56 257.355 493.042C259.55 498.525 252.965 520.457 259.55 533.616C266.135 546.775 263.94 556.645 263.94 556.645C263.94 556.645 269.305 568.707 271.5 573.094C273.695 577.48 270.598 585.807 269.5 588C269.5 636.503 266.915 657.21 273.5 660.5C280.085 663.79 310.033 665.983 313.326 660.5C316.618 655.017 312.228 593.29 315.521 590C318.813 586.71 321.008 570.193 318.813 568C316.618 565.807 318.813 543.486 318.813 543.486C318.813 543.486 315.521 511.685 313.326 507.298C311.131 502.912 307.838 498.525 310.033 495.236C312.228 491.946 314.423 493.042 315.521 488.656C316.618 484.27 318.813 474.4 318.813 474.4L330.885 473.304L359.419 478.787C359.419 478.787 391.246 513.878 426.364 524.844C426.364 524.844 436.241 534.713 439.534 534.713C442.826 534.713 442.826 534.713 441.729 536.906C440.631 539.099 437.339 539.099 439.534 541.293C441.729 543.486 445.021 540.196 442.826 543.486C440.631 546.775 438.436 546.775 440.631 548.969C442.826 551.162 439.534 563.224 439.534 564.321C439.534 565.418 429.657 668.497 432.949 670.69C436.241 672.883 482.335 679.463 485.627 670.69C488.92 661.918 483.432 650.952 483.432 650.952C483.432 650.952 499.894 519.361 495.504 510.588C491.115 501.815 475.75 462.338 393.44 437.116C393.44 437.116 370.394 432.73 370.394 429.44C370.394 426.15 368.199 405.315 363.809 404.219C359.419 403.122 334.177 402.025 334.177 402.025L302.351 411.895L258.453 404.219L236.503 406.412Z" fill="#2F2E41"/>
<path d="M278.15 659.29L272.662 679.028C272.662 679.028 268.273 710.83 273.76 718.506C278.07 724.535 285.766 731.918 300.038 733.214C304.038 733.58 308.043 732.572 311.392 730.355C314.74 728.138 317.231 724.845 318.452 721.022C318.616 720.564 318.718 720.087 318.756 719.602C318.756 717.409 315.464 691.091 315.464 691.091L309.976 663.676L308.879 656L278.15 659.29Z" fill="#2F2E41"/>
<path d="M435.144 684.946C435.144 684.946 429.657 679.463 428.559 684.946C427.462 690.429 423.072 713.457 430.754 714.554C438.436 715.651 511.966 726.617 519.648 722.23C527.331 717.844 541.598 711.264 532.818 707.975C524.038 704.685 498.797 694.815 498.797 694.815C498.797 694.815 484.53 676.173 482.335 675.077C480.14 673.98 468.068 676.173 462.58 680.56C457.093 684.946 435.144 684.946 435.144 684.946Z" fill="#2F2E41"/>
<path d="M317.715 236.44C336.505 236.44 351.737 221.22 351.737 202.446C351.737 183.671 336.505 168.451 317.715 168.451C298.926 168.451 283.694 183.671 283.694 202.446C283.694 221.22 298.926 236.44 317.715 236.44Z" fill="#FFBE9D"/>
<path d="M314.423 279.207L301.254 264.952L286.656 236.44C286.656 236.44 276.012 233.15 273.817 238.633C271.622 244.116 232.113 261.662 232.113 261.662C232.113 261.662 241.991 353.776 237.601 362.548C233.211 371.321 225.529 406.412 232.113 409.702C238.698 412.991 269.427 409.702 279.304 414.088C289.181 418.474 317.715 418.474 325.398 412.991C333.08 407.509 335.275 403.122 342.957 406.412C349.497 409.213 364.786 313.464 369.188 284.93C369.559 282.534 369.251 280.082 368.299 277.851C367.347 275.62 365.789 273.701 363.802 272.309C353.955 265.407 336.22 253.514 333.08 255.082C328.69 257.275 314.423 279.207 314.423 279.207Z" fill="#575A89"/>
<path d="M361.614 274.821C364.191 275.465 366.509 276.881 368.257 278.879C370.005 280.878 371.099 283.363 371.393 286.001L380.271 365.838C380.271 365.838 358.321 412.991 347.347 381.19C336.372 349.389 361.614 274.821 361.614 274.821Z" fill="#575A89"/>
<path d="M359.419 373.514L383.563 366.935C383.563 366.935 387.953 397.639 392.343 397.639C396.732 397.639 376.978 415.185 367.101 412.991C357.224 410.798 342.957 403.122 341.859 397.639C340.762 392.156 351.737 369.128 351.737 369.128L359.419 373.514Z" fill="#575A89"/>
<path d="M292.033 217.11C294.346 212.013 293.945 206.068 295.857 200.808C296.881 197.991 298.543 195.449 300.713 193.38C302.883 191.312 305.503 189.772 308.366 188.883C311.23 187.993 314.261 187.777 317.223 188.251C320.184 188.726 322.995 189.878 325.437 191.617C327.898 193.37 330.364 195.833 333.367 195.498C336.601 195.138 339.486 191.533 342.459 192.854C345.754 194.318 344.864 200.22 348.203 201.583C349.96 202.3 352.037 201.196 353.05 199.592C353.937 197.906 354.42 196.038 354.462 194.135C354.922 189.458 355.339 184.508 353.309 180.268C352.455 178.832 351.711 177.332 351.083 175.783C350.727 174.337 350.585 172.847 350.659 171.359C350.641 165.862 350.239 160.128 347.471 155.377C344.398 150.106 338.719 146.735 332.794 145.264C326.869 143.794 320.661 144.019 314.578 144.534C304.522 145.384 294.034 147.208 286.112 153.454C285.035 154.241 284.108 155.214 283.375 156.327C282.68 157.65 282.188 159.07 281.918 160.54C280.205 167.51 277.636 174.242 274.271 180.582C272.652 183.27 271.329 186.125 270.325 189.098C269.485 192.118 269.542 195.56 271.3 198.156C272.732 200.27 275.021 201.396 276.82 203.124C278.602 204.837 279.436 208.13 281.41 209.426C283.134 210.558 285.198 209.759 286.956 210.959C289.212 212.499 289.375 215.876 292.033 217.11Z" fill="#2F2E41"/>
<path d="M319.91 295.656L323.203 289.076C323.203 289.076 371.491 303.332 381.368 316.491C381.368 316.491 405.512 301.139 418.682 303.332L431.851 305.525L391.245 341.713L339.664 337.326L319.91 295.656Z" fill="#F2F2F2"/>
<path d="M317.715 289.076L272.719 351.582L337.47 383.383C337.47 383.383 343.523 386.673 348.178 383.383L391.245 363.644L431.851 305.525L391.245 326.36C391.245 326.36 386.855 317.588 378.076 321.974L317.715 289.076Z" fill="#DEAAC2"/>
<path d="M386.855 399.832L395.635 376.804C395.635 376.804 415.389 351.582 404.415 339.52C393.44 327.457 381.368 374.611 381.368 374.611L386.855 399.832Z" fill="#FFBE9D"/>
<path d="M285.557 396.157L304.715 380.638C304.715 380.638 334.467 368.724 331.03 352.788C327.594 336.852 293.474 371.589 293.474 371.589L285.557 396.157Z" fill="#FFBE9D"/>
<path opacity="0.1" d="M238.149 285.238H237.052C237.052 285.238 220.041 264.951 216.749 292.366C213.456 319.781 202.482 410.798 231.016 414.088C259.55 417.377 279.853 400.38 279.853 400.38C279.853 400.38 300.705 368.579 293.022 368.579C289.305 368.579 279.196 366.911 269.976 367.483C260.139 368.092 251.301 370.861 251.868 368.031C252.965 362.548 268.878 292.914 238.149 285.238Z" fill="black"/>
<path d="M236.503 263.855L232.113 261.662C232.113 261.662 214.554 264.951 211.261 292.366C207.969 319.781 196.994 410.798 225.528 414.088C254.062 417.378 292.474 409.701 292.474 409.701C292.474 409.701 300.156 368.031 292.474 368.031C284.791 368.031 245.283 373.514 246.38 368.031C247.478 362.548 267.232 271.531 236.503 263.855Z" fill="#575A89"/>
<path d="M370.942 387.222L383.044 368.688L390.697 399.284L370.942 408.057V387.222Z" fill="#575A89"/>
</svg>
