<svg width="765" height="577" viewBox="0 0 765 577" fill="none" xmlns="http://www.w3.org/2000/svg">
<g clip-path="url(#clip0_32:1728)">
<path d="M246 169V580C322.327 580 325.485 580 380.694 580C454.242 580 500.694 580 566 580V169H246Z" fill="#F2F2F2"/>
<path d="M531.973 338.778C515.692 333.594 498.799 330.58 481.731 329.813C473.179 329.448 464.611 329.784 456.113 330.816C447.697 331.93 439.383 333.712 431.249 336.144C423.213 338.473 415.287 341.163 407.278 343.581C399.142 346.068 390.87 348.089 382.504 349.632C374.181 351.14 365.775 352.142 357.332 352.635C348.971 353.122 340.528 353.217 332.191 352.325C324.403 351.574 316.775 349.639 309.571 346.586C302.851 343.651 296.642 339.664 291.174 334.775C289.81 333.556 288.498 332.284 287.237 330.957C286.493 330.179 287.673 328.994 288.419 329.774C299.077 340.925 313.085 347.84 328.279 350.149C336.557 351.407 344.992 351.48 353.342 351.155C361.879 350.825 370.388 349.965 378.818 348.579C387.147 347.196 395.386 345.319 403.492 342.957C411.454 340.649 419.308 337.987 427.243 335.586C435.247 333.071 443.418 331.122 451.695 329.755C459.996 328.489 468.387 327.907 476.783 328.012C493.561 328.281 510.231 330.751 526.366 335.361C528.392 335.931 530.41 336.532 532.418 337.165C533.441 337.486 533.004 339.102 531.973 338.778H531.973Z" fill="#3F3D56"/>
<path d="M531.973 391.778C515.692 386.594 498.799 383.58 481.731 382.813C473.179 382.448 464.611 382.784 456.113 383.816C447.697 384.93 439.383 386.712 431.249 389.144C423.213 391.473 415.287 394.163 407.278 396.581C399.142 399.068 390.87 401.089 382.504 402.632C374.181 404.14 365.775 405.142 357.332 405.635C348.971 406.122 340.528 406.217 332.191 405.325C324.403 404.574 316.775 402.639 309.571 399.586C302.851 396.651 296.642 392.664 291.174 387.775C289.81 386.556 288.498 385.284 287.237 383.957C286.493 383.179 287.673 381.994 288.419 382.774C299.077 393.925 313.085 400.84 328.279 403.149C336.557 404.407 344.992 404.48 353.342 404.155C361.879 403.825 370.388 402.965 378.818 401.579C387.147 400.196 395.386 398.319 403.492 395.957C411.454 393.649 419.308 390.987 427.243 388.586C435.247 386.071 443.418 384.122 451.695 382.755C459.996 381.49 468.387 380.907 476.783 381.012C493.561 381.281 510.231 383.751 526.366 388.361C528.392 388.931 530.41 389.532 532.418 390.165C533.441 390.486 533.004 392.102 531.973 391.778H531.973Z" fill="#3F3D56"/>
<path d="M531.973 290.778C515.692 285.594 498.799 282.58 481.731 281.813C473.179 281.448 464.611 281.784 456.113 282.816C447.697 283.93 439.383 285.712 431.249 288.144C423.213 290.473 415.287 293.163 407.278 295.581C399.142 298.068 390.87 300.089 382.504 301.632C374.181 303.14 365.775 304.142 357.332 304.635C348.971 305.122 340.528 305.217 332.191 304.325C324.403 303.574 316.775 301.639 309.571 298.586C302.851 295.651 296.642 291.664 291.174 286.775C289.81 285.556 288.498 284.284 287.237 282.957C286.493 282.179 287.673 280.994 288.419 281.774C299.077 292.925 313.085 299.84 328.279 302.149C336.557 303.407 344.992 303.48 353.342 303.155C361.879 302.825 370.388 301.965 378.818 300.579C387.147 299.196 395.386 297.319 403.492 294.957C411.454 292.649 419.308 289.987 427.243 287.586C435.247 285.071 443.418 283.122 451.695 281.755C459.996 280.489 468.387 279.907 476.783 280.012C493.561 280.281 510.231 282.752 526.366 287.361C528.392 287.931 530.41 288.532 532.418 289.165C533.441 289.486 533.004 291.102 531.973 290.778H531.973Z" fill="#3F3D56"/>
<path d="M536.429 205.692C531.334 203.436 525.498 203.829 520.211 205.137C514.509 206.547 509.141 209 503.528 210.696C493.482 213.687 482.811 213.89 472.659 211.281C466.944 209.824 461.49 207.488 456.493 204.356C455.348 203.637 456.404 201.815 457.556 202.539C466.463 208.098 476.759 211.031 487.261 211.002C492.527 210.994 497.765 210.224 502.811 208.714C508.382 207.044 513.708 204.62 519.352 203.183C525.331 201.66 531.744 201.329 537.492 203.874C538.729 204.422 537.658 206.236 536.429 205.692Z" fill="#3F3D56"/>
<path d="M474.288 525.539C456.456 525.539 442 511.092 442 493.27C442 475.448 456.456 461 474.288 461C492.121 461 506.577 475.448 506.577 493.27C506.577 511.092 492.121 525.539 474.288 525.539Z" fill="#814774"/>
<path d="M601.548 112.076C591.856 112.076 584 104.224 584 94.5379C584 84.852 591.856 77 601.548 77C611.239 77 619.096 84.852 619.096 94.5379C619.096 104.224 611.239 112.076 601.548 112.076Z" fill="#F2F2F2"/>
<path d="M461.864 135.923C455.273 135.923 449.931 130.584 449.931 123.997C449.931 117.411 455.273 112.072 461.864 112.072C468.454 112.072 473.796 117.411 473.796 123.997C473.796 130.584 468.454 135.923 461.864 135.923Z" fill="#F2F2F2"/>
<path d="M746.149 82.0189C737.065 82.0189 729.701 74.6589 729.701 65.5798C729.701 56.5007 737.065 49.1406 746.149 49.1406C755.234 49.1406 762.598 56.5007 762.598 65.5798C762.598 74.6589 755.234 82.0189 746.149 82.0189Z" fill="#3F3D56"/>
<path d="M224.002 438.22L236.308 551.374H151.394L147.702 542.764L142.779 551.374H100L85.5 541L72.5 529.5C72.5 529.5 68.9406 434.53 80.0164 430.84C91.0922 427.151 224.002 438.22 224.002 438.22Z" fill="#2F2E41"/>
<path d="M151.394 189.774C127.605 189.774 108.321 170.501 108.321 146.726C108.321 122.952 127.605 103.679 151.394 103.679C175.182 103.679 194.466 122.952 194.466 146.726C194.466 170.501 175.182 189.774 151.394 189.774Z" fill="#FFB8B8"/>
<path d="M176.006 173.785C176.006 173.785 172.314 213.143 176.006 215.603C179.698 218.063 116.935 216.833 116.935 216.833C116.935 216.833 125.55 181.165 116.935 163.946L176.006 173.785Z" fill="#FFB8B8"/>
<path d="M153.855 206.993C153.855 206.993 122.189 211.922 119.562 202.078L103.399 224.212L102.168 445.6C102.168 445.6 233.847 461.589 238.769 435.76C243.692 409.932 188.313 205.763 188.313 205.763L174.371 204.861C174.371 204.861 156.316 206.993 153.855 206.993Z" fill="#D0CDE1"/>
<path d="M174.581 194.76L195.697 202.073L255.999 216.833L253.537 364.424C253.537 364.424 305.224 512.016 281.842 523.085C258.46 534.155 225.232 508.326 215.387 489.877C205.542 471.428 171.084 215.603 171.084 210.683C171.084 205.763 174.581 194.76 174.581 194.76Z" fill="#3F3D56"/>
<path d="M120.353 194.76L112.013 202.073L52.9421 229.132L82.4776 377.953C82.4776 377.953 43.097 513.246 57.8647 520.625C72.6324 528.005 94.784 548.914 99.7066 536.614C104.629 524.315 133.616 208.356 120.353 194.76Z" fill="#3F3D56"/>
<path d="M86.1699 391.483C86.1699 391.483 141.549 368.114 142.779 389.023C144.01 409.932 80.0167 424.691 80.0167 418.541C80.0167 412.391 86.1699 391.483 86.1699 391.483Z" fill="#FFB8B8"/>
<path d="M221.541 382.873C221.541 382.873 157.547 430.84 182.16 443.14C206.773 455.439 238.77 400.092 238.77 400.092L221.541 382.873Z" fill="#FFB8B8"/>
<path d="M132.272 83.6686C132.069 83.2406 131.743 82.8828 131.336 82.6412C130.929 82.3996 130.458 82.2852 129.986 82.3127C149.705 81.1338 170.476 83.4309 186.973 94.2913C191.593 97.3329 195.908 101.052 201.168 102.766L196.898 106.113L202 107.667L194.492 112.516C195.25 113.377 196.223 114.023 197.311 114.387C198.399 114.752 199.565 114.822 200.689 114.591C197.426 115.544 195.024 118.445 193.804 121.616C192.584 124.787 192.365 128.24 192.159 131.631C190.898 126.738 185.555 123.858 180.508 123.565C175.462 123.273 170.54 124.937 165.628 126.133C154.931 128.731 143.821 129.158 132.955 127.389C136.645 134.79 133.533 143.616 130.401 151.269L124.147 166.549C120.675 166.898 118.221 163.447 115.606 161.139C113.222 159.035 122.713 177.538 121.243 176.86C119.334 175.979 99.188 153.749 98.2446 151.871C93.9403 143.303 91.3579 133.746 91.7463 124.166C92.1347 114.586 95.6419 105.002 102.249 98.0503C106.735 93.3312 112.94 92.5047 117.513 88.5825C119.313 87.0387 119.319 85.8327 121.793 84.9327C122.614 84.6337 132.136 83.3673 132.272 83.6686Z" fill="#2F2E41"/>
<path d="M247.384 220.522L255.998 216.833L324.914 329.986C324.914 329.986 337.221 359.504 315.069 373.034C292.918 386.563 241.23 427.151 241.23 427.151L211.695 381.643C211.695 381.643 271.997 353.355 268.305 342.285C264.613 331.216 244.922 301.698 244.922 301.698L247.384 220.522Z" fill="#3F3D56"/>
<path d="M68.9405 226.672L52.9421 229.132C52.9421 229.132 -13.5126 359.504 2.48573 384.103C18.4841 408.702 83.7082 443.14 83.7082 443.14C83.7082 443.14 84.9389 402.552 96.0146 387.793L57.8647 373.034L78.7856 291.858L68.9405 226.672Z" fill="#3F3D56"/>
</g>
<defs>
<clipPath id="clip0_32:1728">
<rect width="765" height="577" fill="white" transform="matrix(-1 0 0 1 765 0)"/>
</clipPath>
</defs>
</svg>
