<svg width="921" height="882" viewBox="0 0 921 882" fill="none" xmlns="http://www.w3.org/2000/svg">
<path d="M68.5713 45H912.071L901 861.5C901 861.5 833.5 905.918 764 861.5C714.434 829.822 733.5 815 661 784.5C588.5 754 312.071 780.5 207.071 676C102.071 571.5 175.072 466.5 134.571 396C94.0713 325.5 30.0713 308.5 4.57131 202C-20.9287 95.5 68.5713 45 68.5713 45Z" fill="#F3EBFF"/>
<path d="M76.5713 0H920.071V858.5C920.071 858.5 831.5 892 750.071 858.5C668.643 825 656.071 781 583.571 750.5C511.071 720 326.5 750 221.5 645.5C116.5 541 183.072 421.5 142.571 351C102.071 280.5 38.0713 263.5 12.5713 157C-12.9287 50.5 76.5713 0 76.5713 0Z" fill="url(#paint0_linear)"/>
<path fill-rule="evenodd" clip-rule="evenodd" d="M325.807 277.27C376.007 281.059 403.102 335.913 442.267 367.56C478.709 397.005 528.651 412.913 547.03 456.021C566.035 500.598 564.43 555.627 540.385 597.698C517.812 637.192 467.571 647.012 426.596 666.738C393.82 682.517 362.179 700.839 325.807 700.999C289.322 701.159 255.694 686.348 224.372 667.627C190.158 647.177 151.519 626.514 138.269 588.907C124.92 551.018 146.297 511.694 155.671 472.63C166.037 429.425 166.668 382.462 195.842 348.963C229.156 310.71 275.24 273.454 325.807 277.27Z" fill="url(#paint1_linear)"/>
<path fill-rule="evenodd" clip-rule="evenodd" d="M660.534 181.385C688.531 180.932 711.149 203.338 729.646 223.423C745.159 240.27 746.872 263.422 755.358 284.357C764.399 306.66 782.247 326.053 780.938 349.952C779.423 377.602 771.961 409.41 747.679 424.509C723.507 439.54 692.135 424.459 663.356 423.067C636.974 421.79 607.122 432.277 586.337 416.704C565.652 401.207 572.369 370.001 561.811 346.986C549.643 320.46 512.845 300.366 520.056 272.215C527.178 244.409 568.09 241.669 592.894 225.631C616.092 210.632 632.549 181.836 660.534 181.385Z" fill="#C97A9F"/>
<path fill-rule="evenodd" clip-rule="evenodd" d="M795.74 258.032C801.765 258.38 806.4 262.81 811.422 266.155C816.7 269.67 824.181 271.843 825.713 277.995C827.247 284.152 822.301 289.981 818.648 295.17C815.862 299.127 810.988 300.548 807.484 303.887C803.13 308.037 801.756 316.949 795.74 317C789.742 317.051 788.556 307.807 783.851 304.087C779.469 300.622 772.229 301.126 769.5 296.252C766.68 291.217 768.415 284.919 770.008 279.372C771.651 273.651 774.103 268.066 778.686 264.266C783.461 260.306 789.546 257.675 795.74 258.032Z" fill="#DEAAC2"/>
<defs>
<linearGradient id="paint0_linear" x1="180.5" y1="776.5" x2="920" y2="17.5" gradientUnits="userSpaceOnUse">
<stop stop-color="#75416F"/>
<stop offset="0.322917" stop-color="#804774"/>
<stop offset="0.598958" stop-color="#9C557D"/>
<stop offset="1" stop-color="#AF5F84"/>
</linearGradient>
<linearGradient id="paint1_linear" x1="347" y1="277" x2="347" y2="701" gradientUnits="userSpaceOnUse">
<stop stop-color="#AF5F84"/>
<stop offset="1" stop-color="#814E65"/>
</linearGradient>
</defs>
</svg>
