<svg width="401" height="352" viewBox="0 0 401 352" fill="none" xmlns="http://www.w3.org/2000/svg">
<path fill-rule="evenodd" clip-rule="evenodd" d="M227.953 324.427C203.685 322.499 181.804 314.57 158.967 305.742C130.595 294.775 97.51 291.333 78.7126 266.737C57.7764 239.342 49.1839 202.497 53.7426 168.056C58.4865 132.217 73.3806 93.485 103.955 76.0358C133.534 59.1546 169.321 86.9734 202.951 82.9005C237.59 78.7055 266.572 43.4785 300.491 52.2337C336.787 61.6025 373.896 91.0297 381.275 128.93C388.667 166.895 348.193 195.117 335.364 231.355C325.213 260.03 336.923 298.49 314.311 318.083C291.706 337.67 257.479 326.773 227.953 324.427Z" fill="#F3EBFF"/>
<path fill-rule="evenodd" clip-rule="evenodd" d="M200.281 315.662C174.252 313.75 150.806 305.6 126.337 296.521C95.9381 285.242 60.4545 281.791 40.3775 256.331C18.016 227.974 8.93223 189.764 13.9491 154.001C19.1696 116.786 35.2906 76.5307 68.1563 58.3082C99.9522 40.6788 138.246 69.4213 174.341 65.071C211.519 60.5903 242.741 23.9219 279.099 32.8849C318.006 42.4762 357.711 72.8832 365.489 112.193C373.28 151.57 329.755 181.011 315.859 218.669C304.863 248.468 317.285 288.343 292.955 308.761C268.631 329.174 231.95 317.989 200.281 315.662Z" fill="#F7F6FA"/>
<g filter="url(#filter0_f)">
<ellipse cx="173" cy="247.5" rx="121" ry="5.5" fill="#C4C4C4"/>
</g>
<path fill-rule="evenodd" clip-rule="evenodd" d="M227.953 324.427C203.685 322.499 181.804 314.57 158.967 305.742C130.595 294.775 97.51 291.333 78.7126 266.737C57.7764 239.342 49.1839 202.497 53.7426 168.056C58.4865 132.217 73.3806 93.485 103.955 76.0358C133.534 59.1546 169.321 86.9734 202.951 82.9005C237.59 78.7055 266.572 43.4785 300.491 52.2337C336.787 61.6025 373.896 91.0297 381.275 128.93C388.667 166.895 348.193 195.117 335.364 231.355C325.213 260.03 336.923 298.49 314.311 318.083C291.706 337.67 257.479 326.773 227.953 324.427Z" fill="#F3EBFF"/>
<path fill-rule="evenodd" clip-rule="evenodd" d="M200.281 315.662C174.252 313.75 150.806 305.6 126.337 296.521C95.9381 285.242 60.4545 281.791 40.3775 256.331C18.016 227.974 8.93223 189.764 13.9491 154.001C19.1696 116.786 35.2906 76.5307 68.1563 58.3082C99.9522 40.6788 138.246 69.4213 174.341 65.071C211.519 60.5903 242.741 23.9219 279.099 32.8849C318.006 42.4762 357.711 72.8832 365.489 112.193C373.28 151.57 329.755 181.011 315.859 218.669C304.863 248.468 317.285 288.343 292.955 308.761C268.631 329.174 231.95 317.989 200.281 315.662Z" fill="#F7F6FA"/>
<g filter="url(#filter1_f)">
<ellipse cx="173" cy="247.5" rx="121" ry="5.5" fill="#C4C4C4"/>
</g>
<path d="M253.455 102.929H109.116C105.751 102.929 103.133 100.027 103.133 96.5977V6.3742C103.133 2.81275 105.876 0.0427246 109.116 0.0427246H253.455C256.82 0.0427246 259.438 2.94465 259.438 6.3742V96.4658C259.438 100.027 256.82 102.929 253.455 102.929Z" fill="#252525"/>
<path d="M250.214 7.03369H111.983V87.8923H250.214V7.03369Z" fill="#F9F9F9"/>
<path d="M240.616 19.5652H195.869V79.4502H240.616V19.5652Z" fill="#F3EBFF"/>
<path d="M236.378 25.2366H200.107V31.1721H236.378V25.2366Z" fill="#8336F6"/>
<path d="M236.378 36.3167H200.107V42.2532H236.378V36.3167Z" fill="#A233F1"/>
<path d="M236.378 47.3975H200.107V53.3328H236.378V47.3975Z" fill="white"/>
<path d="M236.378 58.345H200.107V64.2812H236.378V58.345Z" fill="white"/>
<path d="M236.378 69.4253H200.107V75.3613H236.378V69.4253Z" fill="white"/>
<path d="M145.637 26.9518C145.637 26.9518 152.991 26.9518 153.988 32.0961C154.986 37.2404 154.113 42.9123 155.359 46.4737C156.606 50.0351 160.47 60.0599 152.119 60.5875C143.767 61.1151 142.396 58.6089 140.277 58.477C138.283 58.3451 135.167 63.6213 129.059 60.5875C122.952 57.5537 125.694 50.8266 128.312 50.0351C130.929 49.2437 129.932 44.3632 129.309 42.7804C127.938 39.4827 127.065 29.1942 136.04 26.1603C143.144 23.7861 145.637 26.9518 145.637 26.9518Z" fill="#292C3D"/>
<path d="M138.532 45.4185C138.034 52.2776 137.535 60.3238 134.918 66.1277C135.167 68.8977 136.663 74.1739 143.394 74.042C149.127 73.9101 150.748 70.0848 151.246 67.3148C148.629 62.5662 147.008 56.1028 146.634 49.6394C144.017 49.5075 140.402 46.7375 138.532 45.4185Z" fill="#E45940"/>
<path d="M140.402 29.4577C140.402 29.4577 149.626 29.9853 151.62 31.9639C153.49 33.9425 153.49 38.0317 153.988 44.0994C154.487 50.1672 150.997 56.7626 147.881 57.686C144.765 58.6093 136.289 52.9373 135.167 43.5718C133.921 34.2063 136.912 29.1938 140.402 29.4577Z" fill="#F88667"/>
<path d="M209.954 57.026C209.954 57.026 214.441 51.7498 216.186 48.8479C217.931 45.946 224.412 36.4488 225.783 37.8998C227.155 39.3507 221.546 47.265 221.546 47.265C221.546 47.265 226.905 37.1084 228.775 38.1636C230.645 39.2188 223.789 48.1884 223.789 48.1884C223.789 48.1884 229.647 39.6145 230.645 40.8017C231.642 41.9888 230.395 43.9674 225.659 50.1669C225.659 50.1669 229.772 44.7588 230.769 46.4736C231.766 48.1884 227.03 52.937 225.409 53.9922C223.789 55.0474 215.687 59.6641 213.444 61.9065C213.444 61.9065 209.58 59.796 209.954 57.026Z" fill="#F88667"/>
<path d="M224.911 48.3203C224.412 47.0013 222.543 47.1332 221.421 47.2651C220.05 47.397 218.679 47.9246 217.806 49.1118C217.308 49.7713 216.934 50.4309 216.435 50.9585C215.438 52.1456 216.061 53.069 216.435 54.2562C216.56 54.6519 218.803 54.9157 220.922 53.9923C222.543 53.3328 224.038 51.4861 224.412 50.8266C224.786 50.0351 225.16 48.848 224.911 48.3203Z" fill="#FFA77C"/>
<path d="M217.308 49.903C217.308 49.903 222.418 46.2096 224.038 47.3968C225.659 48.584 224.163 49.903 218.803 52.2774C218.803 52.2774 217.058 55.0474 215.812 55.4431C215.812 55.3112 213.942 51.8816 217.308 49.903Z" fill="#F88667"/>
<path d="M144.515 27.2153C144.515 27.2153 147.008 38.955 139.156 40.406C139.156 40.406 137.037 43.4398 138.158 47.0013C139.28 50.6947 141.773 58.3453 137.286 60.192C132.674 62.0387 129.309 59.0048 131.178 51.4861C133.048 43.9675 133.048 39.7464 134.17 34.2064C135.292 28.7982 137.411 24.7091 144.515 27.2153Z" fill="#292C3D"/>
<path d="M140.028 26.8195C140.028 26.8195 140.651 37.3725 149.252 37.7682C157.852 38.164 157.977 31.7003 156.855 30.1173C155.858 28.6663 151.869 22.4665 140.028 26.8195Z" fill="#292C3D"/>
<path d="M148.753 61.3792C148.753 61.3792 145.637 65.4683 144.141 66.1278C142.646 66.7873 136.538 61.5111 136.538 61.5111C136.538 61.5111 128.062 66.5235 121.082 67.3149C121.082 67.3149 114.85 69.6893 112.482 87.8923H168.322C168.322 87.8923 167.948 84.067 168.322 84.067C168.696 84.067 171.439 87.8923 175.676 87.8923C180.039 87.8923 194.747 87.8923 194.747 87.8923C194.747 87.8923 210.328 71.9317 217.557 60.7196L210.826 53.5967C210.826 53.5967 188.016 79.4503 186.147 79.4503C184.277 79.4503 169.693 66.5235 169.195 66.1278C168.572 65.864 153.614 65.6002 148.753 61.3792Z" fill="#EC1383"/>
<path d="M159.971 103.325C159.971 103.325 158.226 100.555 152.867 101.479C147.507 102.402 144.391 112.031 144.391 112.031H159.597C159.597 112.031 160.968 104.644 159.971 103.325Z" fill="#F25D59"/>
<path d="M202.6 103.325C202.6 103.325 204.345 100.555 209.704 101.479C215.064 102.402 218.18 112.031 218.18 112.031H202.974C202.974 112.031 201.602 104.644 202.6 103.325Z" fill="#F25D59"/>
<path d="M159.971 103.325C159.971 103.325 158.226 100.555 152.867 101.479C147.507 102.402 144.391 112.031 144.391 112.031H159.597C159.597 112.031 160.968 104.644 159.971 103.325Z" fill="#0E133D"/>
<path d="M202.6 103.325C202.6 103.325 204.345 100.555 209.704 101.479C215.064 102.402 218.18 112.031 218.18 112.031H202.974C202.974 112.031 201.602 104.644 202.6 103.325Z" fill="#0E133D"/>
<path d="M160.22 75.7567C160.22 75.7567 154.861 75.8886 150.997 79.0544C147.133 82.2201 131.926 107.942 131.178 109.921C130.431 112.031 134.419 113.746 139.405 113.746C144.391 113.746 146.759 114.274 148.753 112.031C150.623 109.789 161.841 99.8957 164.708 92.7727C167.699 85.6497 163.087 75.361 160.22 75.7567Z" fill="#171E5C"/>
<path d="M203.223 75.7567C203.223 75.7567 208.582 75.8886 212.446 79.0544C216.31 82.2201 231.642 107.942 232.265 109.921C233.013 112.031 229.024 113.746 224.038 113.746C219.053 113.746 216.684 114.274 214.69 112.031C212.945 109.789 201.727 99.8957 198.736 92.7727C195.869 85.6497 200.481 75.361 203.223 75.7567Z" fill="#171E5C"/>
<path d="M186.271 60.5876H177.297L175.676 69.2937H187.767L186.271 60.5876Z" fill="#E45940"/>
<path d="M181.909 34.6018C181.784 34.6018 181.784 34.6018 181.909 34.6018C181.784 34.6018 181.784 34.6018 181.784 34.6018C176.923 34.6018 170.192 37.5038 170.192 45.9459C170.192 54.388 172.186 65.4683 181.909 65.4683C191.631 65.4683 193.625 54.388 193.625 45.9459C193.501 37.5038 186.77 34.6018 181.909 34.6018Z" fill="#292C3D"/>
<path d="M168.198 206.344L160.844 211.093C160.844 211.093 163.461 215.842 162.464 217.293C161.467 218.744 155.733 225.603 155.484 229.032C155.235 232.462 157.104 234.573 157.977 234.177C158.974 233.781 176.175 220.854 175.801 218.612C175.427 216.369 168.198 206.344 168.198 206.344Z" fill="#292C3D"/>
<path d="M194.498 206.344L201.852 211.092C201.852 211.092 199.234 215.841 200.231 217.292C201.229 218.743 206.962 225.603 207.211 229.032C207.461 232.462 205.591 234.572 204.719 234.177C203.721 233.781 186.52 220.854 186.894 218.611C187.268 216.369 194.498 206.344 194.498 206.344Z" fill="#292C3D"/>
<path d="M81.2369 111.769H79.2637V242.29H81.2369V111.769Z" fill="#7695A8"/>
<path d="M289.427 113.857H275.614V244.379H289.427V113.857Z" fill="#7695A8"/>
<path d="M289.227 112.032H73.3435V121.168H289.227V112.032Z" fill="#7695A8"/>
<path d="M289.427 125.343H73.3435V128.476H289.427V125.343Z" fill="#7695A8"/>
<path d="M198.112 132.74C193.501 129.838 169.195 129.838 164.583 132.74C159.971 135.642 135.915 154.241 135.915 158.726C135.915 163.211 161.966 214.918 161.966 214.918L171.563 209.774C171.563 209.774 155.733 166.509 157.603 164.662C159.473 162.815 181.41 161.364 181.41 161.364C181.41 161.364 203.223 162.815 205.217 164.662C207.087 166.509 191.257 209.774 191.257 209.774L200.855 214.918C200.855 214.918 226.905 163.211 226.905 158.726C226.781 154.109 202.849 135.51 198.112 132.74Z" fill="#3B4ACF"/>
<path d="M187.268 65.8643C186.894 65.4686 183.404 65.7324 181.659 65.7324C179.914 65.7324 176.549 65.4686 176.05 65.8643C175.676 66.26 172.934 72.7231 172.934 72.7231L181.659 74.7017L190.384 72.7231C190.509 72.855 187.767 66.3919 187.268 65.8643Z" fill="#73C4D1"/>
<path d="M207.959 234.309C205.716 230.879 188.266 217.425 188.266 217.425H181.41H174.555C174.555 217.425 157.104 230.879 154.861 234.309C152.617 237.738 152.991 241.431 155.733 241.431H164.334C164.832 241.431 165.331 241.036 165.331 240.508C165.456 239.98 165.58 239.057 165.58 238.002C165.58 237.474 165.206 236.947 164.708 236.815C164.209 236.683 163.586 236.551 163.586 236.419C163.461 235.891 163.835 235.1 165.58 233.517C168.696 230.747 176.3 224.68 176.3 224.68L181.659 224.811L187.019 224.68C187.019 224.68 194.498 230.747 197.738 233.517C199.483 235.1 199.733 235.891 199.733 236.419C199.733 236.683 199.11 236.815 198.611 236.815C198.112 236.947 197.738 237.342 197.738 238.002C197.738 239.057 197.863 239.849 197.988 240.508C198.112 241.036 198.486 241.431 198.985 241.431H207.585C209.704 241.299 210.203 237.738 207.959 234.309Z" fill="#747474"/>
<path d="M181.41 161.233H175.053L178.169 221.25H181.41H184.526L187.642 161.233H181.41Z" fill="#747474"/>
<path d="M181.41 158.727H164.583C164.583 158.727 166.328 179.171 181.41 179.171C196.492 179.171 198.237 158.727 198.237 158.727H181.41Z" fill="#292C3D"/>
<path d="M210.702 76.9442C206.464 70.8765 181.41 69.8213 181.41 69.8213C181.41 69.8213 156.357 71.0084 152.119 76.9442C147.881 83.0119 159.473 132.741 163.461 140.655C167.45 148.701 181.41 148.437 181.41 148.437C181.41 148.437 195.37 148.569 199.359 140.655C203.223 132.741 214.939 83.0119 210.702 76.9442Z" fill="#F3EBFF"/>
<path d="M189.886 129.97C188.515 128.915 174.181 128.915 172.81 129.97C171.189 131.158 175.178 159.386 175.801 162.288C176.424 165.19 186.271 165.19 186.894 162.288C187.518 159.386 191.506 131.158 189.886 129.97Z" fill="#292C3D"/>
<path d="M214.067 155.297H148.504V164.53H214.067V155.297Z" fill="#292C3D"/>
<path d="M126.317 105.172H85.8078V112.031H126.317V105.172Z" fill="#8336F6"/>
<path d="M121.955 98.313H81.4453V105.172H121.955V98.313Z" fill="#EC1383"/>
<path d="M264.672 95.8071H262.304V97.1262H264.049C265.919 97.1262 267.539 98.709 267.539 100.819V100.951C267.539 102.93 266.044 104.645 264.049 104.645H262.304V105.964H264.672C267.29 105.964 269.409 103.721 269.409 100.951V100.819C269.409 98.0495 267.29 95.8071 264.672 95.8071Z" fill="#292C3D"/>
<path d="M261.681 112.031H251.211C249.715 112.031 248.469 110.712 248.469 109.129V92.7729H264.548V109.129C264.423 110.712 263.177 112.031 261.681 112.031Z" fill="#292C3D"/>
<path d="M255.823 109.789V94.0918H249.715V108.074C249.715 109.525 250.837 110.58 252.083 110.58H255.947C255.947 110.448 255.823 110.185 255.823 109.789Z" fill="#111427"/>
<path d="M259.437 94.0918V108.866C259.437 109.525 259.188 110.185 258.814 110.58H260.559C261.93 110.58 262.927 109.393 262.927 108.074V94.0918H259.437Z" fill="#535563"/>
<defs>
<filter id="filter0_f" x="32" y="222" width="282" height="51" filterUnits="userSpaceOnUse" color-interpolation-filters="sRGB">
<feFlood flood-opacity="0" result="BackgroundImageFix"/>
<feBlend mode="normal" in="SourceGraphic" in2="BackgroundImageFix" result="shape"/>
<feGaussianBlur stdDeviation="10" result="effect1_foregroundBlur"/>
</filter>
<filter id="filter1_f" x="32" y="222" width="282" height="51" filterUnits="userSpaceOnUse" color-interpolation-filters="sRGB">
<feFlood flood-opacity="0" result="BackgroundImageFix"/>
<feBlend mode="normal" in="SourceGraphic" in2="BackgroundImageFix" result="shape"/>
<feGaussianBlur stdDeviation="10" result="effect1_foregroundBlur"/>
</filter>
</defs>
</svg>
