<svg width="108" height="842" viewBox="0 0 108 842" fill="none" xmlns="http://www.w3.org/2000/svg">
<path fill-rule="evenodd" clip-rule="evenodd" d="M122.663 0.552378C152.219 -2.59939 182.914 71.8605 208.542 138.715C230.039 194.79 238.785 272.989 254.052 343.294C270.318 418.198 295.052 482.748 300.817 563.645C307.488 657.243 309.097 765.244 287.864 817.717C266.729 869.948 228.944 820.765 198.006 817.725C169.645 814.938 141.125 852.134 114.42 800.674C87.8442 749.462 85.6257 643.54 67.5391 566.317C46.694 477.317 1.65335 411.494 0.872991 315.871C0.102235 221.425 42.6708 209.785 64.1751 154.11C84.2865 102.041 93.12 3.70277 122.663 0.552378Z" fill="#C97A9F"/>
</svg>
