<svg width="57" height="907" viewBox="0 0 57 907" fill="none" xmlns="http://www.w3.org/2000/svg">
<path fill-rule="evenodd" clip-rule="evenodd" d="M0.925541 0.577758C12.9452 8.68175 19.4328 126.024 28.8105 193.721C37.536 256.709 49.494 290.739 53.8945 382.954C58.4451 478.311 58.0608 596.026 52.3035 686.021C46.8987 770.506 34.8692 791.512 25.0582 833.709C17.2104 867.462 9.63436 906.655 0.925541 906.997C-7.81031 907.34 -15.862 875.658 -23.3616 835.61C-31.5537 791.865 -40.8054 747.663 -43.9778 667.216C-47.1741 586.165 -42.0555 502.046 -39.8113 418.481C-37.3291 326.06 -37.1781 225.599 -30.1928 153.939C-22.2162 72.11 -11.182 -7.58549 0.925541 0.577758Z" fill="url(#paint0_linear)"/>
<defs>
<linearGradient id="paint0_linear" x1="5.99999" y1="0" x2="5.99999" y2="907" gradientUnits="userSpaceOnUse">
<stop stop-color="#AF5F84"/>
<stop offset="1" stop-color="#814E65"/>
</linearGradient>
</defs>
</svg>
