<svg width="401" height="355" viewBox="0 0 401 355" fill="none" xmlns="http://www.w3.org/2000/svg">
<path fill-rule="evenodd" clip-rule="evenodd" d="M227.953 327.427C203.685 325.499 181.804 317.57 158.967 308.742C130.595 297.775 97.51 294.333 78.7126 269.737C57.7764 242.342 49.1839 205.497 53.7426 171.056C58.4865 135.217 73.3806 96.485 103.955 79.0358C133.534 62.1546 169.321 89.9734 202.951 85.9005C237.59 81.7055 266.572 46.4785 300.491 55.2337C336.787 64.6025 373.896 94.0297 381.275 131.93C388.667 169.895 348.193 198.117 335.364 234.355C325.213 263.03 336.923 301.49 314.311 321.083C291.706 340.67 257.479 329.773 227.953 327.427Z" fill="#F3EBFF"/>
<path fill-rule="evenodd" clip-rule="evenodd" d="M200.281 318.662C174.252 316.75 150.806 308.6 126.337 299.521C95.9381 288.242 60.4545 284.791 40.3775 259.331C18.016 230.974 8.93223 192.764 13.9491 157.001C19.1696 119.786 35.2906 79.5307 68.1563 61.3082C99.9522 43.6788 138.246 72.4213 174.341 68.071C211.519 63.5903 242.741 26.9219 279.099 35.8849C318.006 45.4762 357.711 75.8832 365.489 115.193C373.28 154.57 329.755 184.011 315.859 221.669C304.863 251.468 317.285 291.343 292.955 311.761C268.631 332.174 231.95 320.989 200.281 318.662Z" fill="#F7F6FA"/>
<g filter="url(#filter0_f)">
<ellipse cx="173" cy="250.5" rx="121" ry="5.5" fill="#C4C4C4"/>
</g>
<path fill-rule="evenodd" clip-rule="evenodd" d="M227.953 327.427C203.685 325.499 181.804 317.57 158.967 308.742C130.595 297.775 97.51 294.333 78.7126 269.737C57.7764 242.342 49.1839 205.497 53.7426 171.056C58.4865 135.217 73.3806 96.485 103.955 79.0358C133.534 62.1546 169.321 89.9734 202.951 85.9005C237.59 81.7055 266.572 46.4785 300.491 55.2337C336.787 64.6025 373.896 94.0297 381.275 131.93C388.667 169.895 348.193 198.117 335.364 234.355C325.213 263.03 336.923 301.49 314.311 321.083C291.706 340.67 257.479 329.773 227.953 327.427Z" fill="#F3EBFF"/>
<path fill-rule="evenodd" clip-rule="evenodd" d="M200.281 318.662C174.252 316.75 150.806 308.6 126.337 299.521C95.9381 288.242 60.4545 284.791 40.3775 259.331C18.016 230.974 8.93223 192.764 13.9491 157.001C19.1696 119.786 35.2906 79.5307 68.1563 61.3082C99.9522 43.6788 138.246 72.4213 174.341 68.071C211.519 63.5903 242.741 26.9219 279.099 35.8849C318.006 45.4762 357.711 75.8832 365.489 115.193C373.28 154.57 329.755 184.011 315.859 221.669C304.863 251.468 317.285 291.343 292.955 311.761C268.631 332.174 231.95 320.989 200.281 318.662Z" fill="#F7F6FA"/>
<g filter="url(#filter1_f)">
<ellipse cx="173" cy="250.5" rx="121" ry="5.5" fill="#C4C4C4"/>
</g>
<path d="M253.229 116.972H97.5832C93.9541 116.972 91.1315 113.699 91.1315 109.831V8.07417C91.1315 4.05746 94.0885 0.93335 97.5832 0.93335H253.229C256.858 0.93335 259.681 4.20623 259.681 8.07417V109.682C259.681 113.699 256.858 116.972 253.229 116.972Z" fill="#252525"/>
<path d="M249.734 8.81812H100.675V100.013H249.734V8.81812Z" fill="#F9F9F9"/>
<path d="M239.385 22.9512H191.132V90.4911H239.385V22.9512Z" fill="#F3EBFF"/>
<path d="M234.815 29.3479H195.702V36.0427H234.815V29.3479Z" fill="#8336F6"/>
<path d="M234.815 41.8447H195.702V48.5392H234.815V41.8447Z" fill="#A233F1"/>
<path d="M234.815 54.3413H195.702V61.0353H234.815V54.3413Z" fill="white"/>
<path d="M234.815 66.6885H195.702V73.3831H234.815V66.6885Z" fill="white"/>
<path d="M234.815 79.1851H195.702V85.8799H234.815V79.1851Z" fill="white"/>
<path d="M136.965 31.2818C136.965 31.2818 144.895 31.2818 145.971 37.0837C147.046 42.8857 146.105 49.2827 147.449 53.2994C148.793 57.3162 152.96 68.6225 143.954 69.2176C134.949 69.8127 133.47 66.9861 131.186 66.8373C129.035 66.6885 125.675 72.6392 119.089 69.2176C112.503 65.7959 115.46 58.2088 118.282 57.3162C121.105 56.4236 120.03 50.9191 119.358 49.1339C117.879 45.4147 116.938 33.8109 126.616 30.3892C134.277 27.7114 136.965 31.2818 136.965 31.2818Z" fill="#292C3D"/>
<path d="M129.304 52.1094C128.766 59.8453 128.228 68.9202 125.406 75.466C125.675 78.5901 127.288 84.5408 134.546 84.392C140.729 84.2433 142.476 79.929 143.013 76.8049C140.191 71.4492 138.444 64.1596 138.04 56.87C135.218 56.7212 131.32 53.5971 129.304 52.1094Z" fill="#E45940"/>
<path d="M131.32 34.1088C131.32 34.1088 141.266 34.7039 143.417 36.9354C145.433 39.1669 145.433 43.7787 145.971 50.622C146.508 57.4653 142.745 64.9037 139.384 65.945C136.024 66.9864 126.884 60.5894 125.675 50.0269C124.331 39.4645 127.556 33.8113 131.32 34.1088Z" fill="#F88667"/>
<path d="M206.32 65.2008C206.32 65.2008 211.159 59.2502 213.041 55.9774C214.922 52.7045 221.912 41.9935 223.39 43.6299C224.869 45.2663 218.82 54.1922 218.82 54.1922C218.82 54.1922 224.6 42.7373 226.616 43.9274C228.632 45.1175 221.24 55.2335 221.24 55.2335C221.24 55.2335 227.557 45.5638 228.632 46.9027C229.707 48.2416 228.363 50.473 223.256 57.465C223.256 57.465 227.691 51.3656 228.766 53.2996C229.842 55.2335 224.734 60.5891 222.987 61.7792C221.24 62.9693 212.503 68.1761 210.084 70.7051C210.084 70.7051 205.917 68.3248 206.32 65.2008Z" fill="#F88667"/>
<path d="M222.449 55.3824C221.912 53.8947 219.896 54.0435 218.686 54.1922C217.207 54.341 215.729 54.9361 214.788 56.2749C214.25 57.0188 213.847 57.7626 213.309 58.3576C212.234 59.6965 212.906 60.7379 213.309 62.0767C213.444 62.523 215.863 62.8206 218.148 61.7792C219.896 61.0354 221.508 58.9527 221.912 58.2089C222.315 57.3163 222.718 55.9774 222.449 55.3824Z" fill="#FFA77C"/>
<path d="M214.25 57.1675C214.25 57.1675 219.761 53.002 221.508 54.3409C223.256 55.6798 221.643 57.1675 215.863 59.8453C215.863 59.8453 213.982 62.9694 212.638 63.4156C212.638 63.2669 210.621 59.399 214.25 57.1675Z" fill="#F88667"/>
<path d="M135.755 31.5794C135.755 31.5794 138.443 44.8198 129.976 46.4562C129.976 46.4562 127.691 49.8779 128.9 53.8946C130.11 58.0601 132.798 66.6886 127.96 68.7714C122.986 70.8541 119.357 67.4325 121.374 58.9527C123.39 50.4729 123.39 45.7124 124.599 39.4641C125.809 33.3647 128.094 28.7529 135.755 31.5794Z" fill="#292C3D"/>
<path d="M130.917 31.1333C130.917 31.1333 131.589 43.0344 140.863 43.4807C150.137 43.927 150.272 36.6376 149.062 34.8524C147.987 33.216 143.686 26.2241 130.917 31.1333Z" fill="#292C3D"/>
<path d="M140.325 70.1107C140.325 70.1107 136.965 74.7225 135.352 75.4663C133.739 76.2102 127.153 70.2595 127.153 70.2595C127.153 70.2595 118.013 75.9126 110.487 76.8052C110.487 76.8052 103.766 79.483 101.212 100.013H161.428C161.428 100.013 161.024 95.6986 161.428 95.6986C161.831 95.6986 164.788 100.013 169.358 100.013C174.062 100.013 189.922 100.013 189.922 100.013C189.922 100.013 206.723 82.0121 214.519 69.3669L207.261 61.3335C207.261 61.3335 182.664 90.4918 180.648 90.4918C178.632 90.4918 162.906 75.9126 162.368 75.4663C161.696 75.1688 145.567 74.8713 140.325 70.1107Z" fill="#EC1383"/>
<path d="M152.422 117.418C152.422 117.418 150.54 114.294 144.761 115.336C138.981 116.377 135.621 127.236 135.621 127.236H152.019C152.019 127.236 153.497 118.906 152.422 117.418Z" fill="#F25D59"/>
<path d="M198.39 117.418C198.39 117.418 200.272 114.294 206.051 115.336C211.831 116.377 215.191 127.236 215.191 127.236H198.793C198.793 127.236 197.315 118.906 198.39 117.418Z" fill="#F25D59"/>
<path d="M152.422 117.418C152.422 117.418 150.54 114.294 144.761 115.336C138.981 116.377 135.621 127.236 135.621 127.236H152.019C152.019 127.236 153.497 118.906 152.422 117.418Z" fill="#0E133D"/>
<path d="M198.39 117.418C198.39 117.418 200.272 114.294 206.051 115.336C211.831 116.377 215.191 127.236 215.191 127.236H198.793C198.793 127.236 197.315 118.906 198.39 117.418Z" fill="#0E133D"/>
<path d="M152.691 86.326C152.691 86.326 146.911 86.4747 142.745 90.0451C138.578 93.6155 122.18 122.625 121.374 124.857C120.567 127.237 124.868 129.171 130.245 129.171C135.621 129.171 138.175 129.766 140.325 127.237C142.342 124.708 154.438 113.55 157.53 105.517C160.756 97.4835 155.782 85.8797 152.691 86.326Z" fill="#171E5C"/>
<path d="M199.062 86.326C199.062 86.326 204.842 86.4747 209.008 90.0451C213.175 93.6155 229.707 122.625 230.379 124.857C231.186 127.237 226.885 129.171 221.508 129.171C216.132 129.171 213.578 129.766 211.428 127.237C209.546 124.708 197.449 113.55 194.223 105.517C191.132 97.4835 196.105 85.8797 199.062 86.326Z" fill="#171E5C"/>
<path d="M180.782 69.2175H171.105L169.358 79.0359H182.395L180.782 69.2175Z" fill="#E45940"/>
<path d="M176.078 39.9104C175.944 39.9104 175.944 39.9104 176.078 39.9104C175.944 39.9104 175.944 39.9104 175.944 39.9104C170.702 39.9104 163.444 43.1833 163.444 52.7045C163.444 62.2256 165.594 74.7222 176.078 74.7222C186.562 74.7222 188.713 62.2256 188.713 52.7045C188.578 43.1833 181.32 39.9104 176.078 39.9104Z" fill="#292C3D"/>
<path d="M161.293 233.605L153.363 238.961C153.363 238.961 156.186 244.317 155.11 245.953C154.035 247.589 147.852 255.325 147.583 259.193C147.315 263.061 149.331 265.442 150.272 264.995C151.347 264.549 169.895 249.97 169.492 247.441C169.089 244.912 161.293 233.605 161.293 233.605Z" fill="#292C3D"/>
<path d="M189.653 233.605L197.584 238.961C197.584 238.961 194.761 244.317 195.836 245.953C196.912 247.59 203.094 255.326 203.363 259.194C203.632 263.062 201.616 265.442 200.675 264.996C199.6 264.549 181.051 249.97 181.454 247.441C181.858 244.912 189.653 233.605 189.653 233.605Z" fill="#292C3D"/>
<path d="M67.5187 126.941H65.3907V274.146H67.5187V126.941Z" fill="#7695A8"/>
<path d="M292.02 129.296H277.124V276.501H292.02V129.296Z" fill="#7695A8"/>
<path d="M291.804 127.237H59.0078V137.54H291.804V127.237Z" fill="#7695A8"/>
<path d="M292.02 142.25H59.0078V145.783H292.02V142.25Z" fill="#7695A8"/>
<path d="M193.551 150.593C188.578 147.32 162.368 147.32 157.395 150.593C152.422 153.866 126.481 174.842 126.481 179.9C126.481 184.959 154.573 243.275 154.573 243.275L164.922 237.473C164.922 237.473 147.852 188.678 149.868 186.595C151.885 184.512 175.541 182.876 175.541 182.876C175.541 182.876 199.062 184.512 201.213 186.595C203.229 188.678 186.159 237.473 186.159 237.473L196.508 243.275C196.508 243.275 224.6 184.959 224.6 179.9C224.465 174.694 198.659 153.717 193.551 150.593Z" fill="#3B4ACF"/>
<path d="M181.858 75.1685C181.454 74.7222 177.691 75.0198 175.809 75.0198C173.928 75.0198 170.298 74.7222 169.761 75.1685C169.358 75.6148 166.401 82.9041 166.401 82.9041L175.809 85.1355L185.218 82.9041C185.352 83.0528 182.395 75.7636 181.858 75.1685Z" fill="#73C4D1"/>
<path d="M204.17 265.144C201.75 261.276 182.933 246.102 182.933 246.102H175.541H168.148C168.148 246.102 149.331 261.276 146.911 265.144C144.492 269.012 144.895 273.177 147.852 273.177H157.126C157.664 273.177 158.202 272.731 158.202 272.136C158.336 271.541 158.471 270.499 158.471 269.309C158.471 268.714 158.067 268.119 157.53 267.97C156.992 267.822 156.32 267.673 156.32 267.524C156.186 266.929 156.589 266.036 158.471 264.251C161.831 261.127 170.03 254.284 170.03 254.284L175.809 254.433L181.589 254.284C181.589 254.284 189.654 261.127 193.148 264.251C195.03 266.036 195.299 266.929 195.299 267.524C195.299 267.822 194.627 267.97 194.089 267.97C193.551 268.119 193.148 268.565 193.148 269.309C193.148 270.499 193.283 271.392 193.417 272.136C193.551 272.731 193.955 273.177 194.492 273.177H203.766C206.051 273.028 206.589 269.012 204.17 265.144Z" fill="#747474"/>
<path d="M175.54 182.728H168.686L172.046 250.416H175.54H178.901L182.261 182.728H175.54Z" fill="#747474"/>
<path d="M175.54 179.901H157.395C157.395 179.901 159.277 202.959 175.54 202.959C191.804 202.959 193.686 179.901 193.686 179.901H175.54Z" fill="#292C3D"/>
<path d="M207.126 87.6652C202.556 80.822 175.54 79.6318 175.54 79.6318C175.54 79.6318 148.524 80.9707 143.954 87.6652C139.384 94.5084 151.884 150.593 156.185 159.519C160.486 168.594 175.54 168.296 175.54 168.296C175.54 168.296 190.594 168.445 194.895 159.519C199.062 150.593 211.696 94.5084 207.126 87.6652Z" fill="#F3EBFF"/>
<path d="M184.68 147.469C183.202 146.279 167.745 146.279 166.266 147.469C164.519 148.808 168.82 180.645 169.492 183.918C170.164 187.191 180.782 187.191 181.454 183.918C182.126 180.645 186.428 148.808 184.68 147.469Z" fill="#292C3D"/>
<path d="M210.756 176.033H140.056V186.447H210.756V176.033Z" fill="#292C3D"/>
<path d="M116.132 119.501H72.4487V127.237H116.132V119.501Z" fill="#8336F6"/>
<path d="M111.427 111.765H67.7443V119.501H111.427V111.765Z" fill="#EC1383"/>
<path d="M265.326 108.939H262.772V110.427H264.654C266.67 110.427 268.417 112.212 268.417 114.592V114.741C268.417 116.972 266.804 118.906 264.654 118.906H262.772V120.394H265.326C268.148 120.394 270.433 117.865 270.433 114.741V114.592C270.433 111.468 268.148 108.939 265.326 108.939Z" fill="#292C3D"/>
<path d="M262.1 127.237H250.81C249.197 127.237 247.853 125.749 247.853 123.964V105.517H265.191V123.964C265.057 125.749 263.713 127.237 262.1 127.237Z" fill="#292C3D"/>
<path d="M255.783 124.708V107.005H249.197V122.774C249.197 124.411 250.406 125.601 251.75 125.601H255.917C255.917 125.452 255.783 125.155 255.783 124.708Z" fill="#111427"/>
<path d="M259.681 107.005V123.667C259.681 124.411 259.412 125.155 259.009 125.601H260.89C262.369 125.601 263.444 124.262 263.444 122.774V107.005H259.681Z" fill="#535563"/>
<defs>
<filter id="filter0_f" x="32" y="225" width="282" height="51" filterUnits="userSpaceOnUse" color-interpolation-filters="sRGB">
<feFlood flood-opacity="0" result="BackgroundImageFix"/>
<feBlend mode="normal" in="SourceGraphic" in2="BackgroundImageFix" result="shape"/>
<feGaussianBlur stdDeviation="10" result="effect1_foregroundBlur"/>
</filter>
<filter id="filter1_f" x="32" y="225" width="282" height="51" filterUnits="userSpaceOnUse" color-interpolation-filters="sRGB">
<feFlood flood-opacity="0" result="BackgroundImageFix"/>
<feBlend mode="normal" in="SourceGraphic" in2="BackgroundImageFix" result="shape"/>
<feGaussianBlur stdDeviation="10" result="effect1_foregroundBlur"/>
</filter>
</defs>
</svg>
